<svg version="1.1" id="Layer_1" xmlns="http://www.w3.org/2000/svg" xmlns:xlink="http://www.w3.org/1999/xlink" x="0px" y="0px"
	 width="100%" viewBox="0 0 225 225" enable-background="new 0 0 225 225" xml:space="preserve">
<path fill="#FFC002" opacity="1.000000" stroke="none" 
	d="
M226.000000,109.000000 
	C226.000000,112.692909 226.000000,116.385818 225.645630,120.735771 
	C224.932907,123.858093 224.531097,126.317947 224.222626,128.789459 
	C218.427933,175.217484 181.434540,214.476730 135.356491,223.066589 
	C129.911285,224.081696 124.452492,225.023956 119.000000,226.000000 
	C115.307091,226.000000 111.614182,226.000000 107.267838,225.643005 
	C82.233360,222.841934 60.159302,214.888931 41.739746,198.741867 
	C49.478615,190.846466 56.898579,183.276428 64.453835,175.568344 
	C65.833344,176.507416 67.193916,177.425018 68.545860,178.355164 
	C84.057533,189.027390 101.099571,193.721878 119.975052,192.237976 
	C166.900757,188.548904 199.921097,145.224396 191.060165,98.708702 
	C182.764267,55.159096 139.492447,26.515598 96.971687,36.427410 
	C51.912247,46.930996 24.797966,91.255234 38.119980,134.814301 
	C41.218327,144.944977 39.373550,150.538513 31.975449,156.533844 
	C26.910049,160.638779 22.622175,165.703156 17.887470,170.437866 
	C5.142187,150.879074 -0.725221,120.678650 3.254528,96.741180 
	C13.148758,37.229172 65.278061,-3.019161 124.984482,2.755134 
	C174.175430,7.512461 214.410614,44.514317 223.221329,93.111397 
	C224.180450,98.401634 225.075317,103.703522 226.000000,109.000000 
z"/>
<path fill="#FEFEFC" opacity="1.000000" stroke="none" 
	d="
M226.000000,108.531342 
	C225.075317,103.703522 224.180450,98.401634 223.221329,93.111397 
	C214.410614,44.514317 174.175430,7.512461 124.984482,2.755134 
	C65.278061,-3.019161 13.148758,37.229172 3.254528,96.741180 
	C-0.725221,120.678650 5.142187,150.879074 17.887470,170.437866 
	C22.622175,165.703156 26.910049,160.638779 31.975449,156.533844 
	C39.373550,150.538513 41.218327,144.944977 38.119980,134.814301 
	C24.797966,91.255234 51.912247,46.930996 96.971687,36.427410 
	C139.492447,26.515598 182.764267,55.159096 191.060165,98.708702 
	C199.921097,145.224396 166.900757,188.548904 119.975052,192.237976 
	C101.099571,193.721878 84.057533,189.027390 68.545860,178.355164 
	C67.193916,177.425018 65.833344,176.507416 64.453835,175.568344 
	C56.898579,183.276428 49.478615,190.846466 41.739746,198.741867 
	C60.159302,214.888931 82.233360,222.841934 106.807205,225.643005 
	C71.689957,226.000000 36.379917,226.000000 1.034939,226.000000 
	C1.034939,151.072754 1.034939,76.145477 1.034939,1.109102 
	C75.877678,1.109102 150.755569,1.109102 226.000000,1.109102 
	C226.000000,36.686726 226.000000,72.374702 226.000000,108.531342 
M52.749100,100.337532 
	C44.963028,135.740982 68.343338,169.631042 104.501129,175.352753 
	C139.602280,180.907242 172.680710,155.191391 175.999969,119.768112 
	C179.330215,84.227417 151.972992,52.595089 116.670876,51.167706 
	C86.418442,49.944496 60.747845,69.410362 52.749100,100.337532 
z"/>
<path fill="#FFFEFD" opacity="1.000000" stroke="none" 
	d="
M119.468658,226.000000 
	C124.452492,225.023956 129.911285,224.081696 135.356491,223.066589 
	C181.434540,214.476730 218.427933,175.217484 224.222626,128.789459 
	C224.531097,126.317947 224.932907,123.858093 225.645630,121.196411 
	C226.000000,155.927628 226.000000,190.855270 226.000000,226.000000 
	C190.646072,226.000000 155.291687,226.000000 119.468658,226.000000 
z"/>
<path fill="#070603" opacity="1.000000" stroke="none" 
	d="
M52.828465,99.928192 
	C60.747845,69.410362 86.418442,49.944496 116.670876,51.167706 
	C151.972992,52.595089 179.330215,84.227417 175.999969,119.768112 
	C172.680710,155.191391 139.602280,180.907242 104.501129,175.352753 
	C68.343338,169.631042 44.963028,135.740982 52.828465,99.928192 
M136.314468,144.757004 
	C138.897598,141.890335 141.480713,139.023651 144.052917,136.051376 
	C144.052917,136.051376 144.158508,136.062241 144.867676,136.012436 
	C146.238113,135.181976 147.803925,134.558395 148.942856,133.482788 
	C152.559509,130.067245 156.188950,126.633430 159.456268,122.894539 
	C160.878586,121.266930 161.431122,118.879234 162.378693,116.836739 
	C160.088959,115.891144 157.830658,114.232857 155.503723,114.130165 
	C147.722229,113.786758 139.916183,113.999779 132.119537,113.999695 
	C129.909225,113.999672 127.698929,113.999695 125.040321,113.999695 
	C126.853806,110.914124 128.137955,108.729202 129.564957,106.559669 
	C129.564957,106.559669 129.586700,106.417633 130.282745,106.667213 
	C132.377121,104.735306 135.340393,103.192108 136.409775,100.801674 
	C140.261810,92.190910 140.574142,83.686775 134.777420,75.349365 
	C125.764236,62.385757 112.131432,59.369900 100.253990,67.818130 
	C84.470322,79.044792 83.000145,97.657562 99.191185,110.136665 
	C100.206406,110.919144 100.967400,112.031464 102.772224,113.999695 
	C99.616562,113.999695 97.983521,113.999619 96.350479,113.999710 
	C88.017387,114.000168 79.683929,113.955345 71.351372,114.022057 
	C67.694016,114.051331 67.483856,114.302773 66.747200,117.423798 
	C66.621262,117.899948 66.495323,118.376099 65.797775,119.180779 
	C65.837936,119.903961 65.605217,120.838821 65.970543,121.309769 
	C66.977844,122.608330 68.225723,123.722458 69.395416,124.892563 
	C82.500214,138.002014 95.577072,151.139877 108.782722,164.146973 
	C109.699944,165.050415 110.605484,168.415833 113.741325,165.538834 
	C114.218025,165.375595 114.694725,165.212372 115.879303,165.006500 
	C116.512878,164.842834 117.344269,164.881653 117.750259,164.485046 
	C123.556412,158.812897 129.336365,153.112579 135.017502,147.316010 
	C135.561920,146.760529 135.404480,145.517181 135.918869,144.915176 
	C135.918869,144.915176 135.597137,144.568909 136.314468,144.757004 
z"/>
<path fill="#FCFCFC" opacity="1.000000" stroke="none" 
	d="
M115.171417,165.049133 
	C114.694725,165.212372 114.218025,165.375595 113.148499,165.209167 
	C97.160248,149.537094 81.764816,134.194672 66.369385,118.852249 
	C66.495323,118.376099 66.621262,117.899948 67.361710,117.270981 
	C98.945007,117.118156 129.913788,117.118156 162.427261,117.118156 
	C155.569351,124.229584 149.863937,130.145920 144.158508,136.062241 
	C144.158508,136.062241 144.052917,136.051376 143.753769,136.229385 
	C140.835464,139.127899 138.216309,141.848404 135.597137,144.568909 
	C135.597137,144.568909 135.918869,144.915176 135.457245,144.913269 
	C128.387543,151.623962 121.779480,158.336548 115.171417,165.049133 
z"/>
<path fill="#050504" opacity="1.000000" stroke="none" 
	d="
M144.513092,136.037338 
	C149.863937,130.145920 155.569351,124.229584 162.427261,117.118156 
	C129.913788,117.118156 98.945007,117.118156 67.512924,117.070084 
	C67.483856,114.302773 67.694016,114.051331 71.351372,114.022057 
	C79.683929,113.955345 88.017387,114.000168 96.350479,113.999710 
	C97.983521,113.999619 99.616562,113.999695 102.772224,113.999695 
	C100.967400,112.031464 100.206406,110.919144 99.191185,110.136665 
	C83.000145,97.657562 84.470322,79.044792 100.253990,67.818130 
	C112.131432,59.369900 125.764236,62.385757 134.777420,75.349365 
	C140.574142,83.686775 140.261810,92.190910 136.409775,100.801674 
	C135.340393,103.192108 132.377121,104.735306 130.131561,106.280045 
	C138.198593,95.509148 139.225464,85.458015 132.733734,76.146271 
	C127.278656,68.321503 119.526672,65.027199 110.182297,66.396400 
	C99.153267,68.012436 92.980698,75.659081 90.384247,85.604462 
	C88.364983,93.338997 91.845467,100.394272 97.611084,105.858147 
	C106.543304,114.322914 117.984932,114.461823 129.422089,106.544281 
	C128.137955,108.729202 126.853806,110.914124 125.040321,113.999695 
	C127.698929,113.999695 129.909225,113.999672 132.119537,113.999695 
	C139.916183,113.999779 147.722229,113.786758 155.503723,114.130165 
	C157.830658,114.232857 160.088959,115.891144 162.378693,116.836739 
	C161.431122,118.879234 160.878586,121.266930 159.456268,122.894539 
	C156.188950,126.633430 152.559509,130.067245 148.942856,133.482788 
	C147.803925,134.558395 146.238113,135.181976 144.513092,136.037338 
z"/>
<path fill="#050504" opacity="1.000000" stroke="none" 
	d="
M66.083580,119.016510 
	C81.764816,134.194672 97.160248,149.537094 112.774323,165.153793 
	C110.605484,168.415833 109.699944,165.050415 108.782722,164.146973 
	C95.577072,151.139877 82.500214,138.002014 69.395416,124.892563 
	C68.225723,123.722458 66.977844,122.608330 65.970543,121.309769 
	C65.605217,120.838821 65.837936,119.903961 66.083580,119.016510 
z"/>
<path fill="#050504" opacity="1.000000" stroke="none" 
	d="
M115.525360,165.027817 
	C121.779480,158.336548 128.387543,151.623962 135.284241,144.752274 
	C135.404480,145.517181 135.561920,146.760529 135.017502,147.316010 
	C129.336365,153.112579 123.556412,158.812897 117.750259,164.485046 
	C117.344269,164.881653 116.512878,164.842834 115.525360,165.027817 
z"/>
<path fill="#050504" opacity="1.000000" stroke="none" 
	d="
M135.955811,144.662964 
	C138.216309,141.848404 140.835464,139.127899 143.759216,136.282181 
	C141.480713,139.023651 138.897598,141.890335 135.955811,144.662964 
z"/>
<path fill="#FCFCFC" opacity="1.000000" stroke="none" 
	d="
M129.493530,106.551971 
	C117.984932,114.461823 106.543304,114.322914 97.611084,105.858147 
	C91.845467,100.394272 88.364983,93.338997 90.384247,85.604462 
	C92.980698,75.659081 99.153267,68.012436 110.182297,66.396400 
	C119.526672,65.027199 127.278656,68.321503 132.733734,76.146271 
	C139.225464,85.458015 138.198593,95.509148 129.783539,106.155251 
	C129.586700,106.417633 129.564957,106.559669 129.493530,106.551971 
z"/>
</svg>